<svg width="577" height="577" viewBox="0 0 577 577" fill="none" xmlns="http://www.w3.org/2000/svg">
<path d="M367.668 58.5221C392.337 81.6982 404.361 117.893 405.703 151.012C406.073 164.978 406.073 164.978 405.012 170.174C402.819 181.615 408.044 189.414 413.292 199.184C417.384 206.844 420.83 214.731 424.227 222.714C424.786 224.008 425.344 225.303 425.919 226.636C438.92 257.223 438.92 257.223 433.243 273.075C421.704 297.595 394.402 308.372 370.768 317.801C398.984 336.847 428.427 345.785 461.582 352.474C476.551 355.536 489.943 359.059 501.494 369.64C502.409 370.464 502.409 370.464 503.343 371.304C524.756 393.281 524.263 433.714 524.566 462.162C524.586 463.994 524.615 465.825 524.653 467.656C524.877 479.92 523.646 488.71 516.224 498.822C502.952 512.013 486.182 518.998 468.812 525.16C467.531 525.615 467.531 525.615 466.225 526.079C439.274 535.387 406.156 543.458 377.529 543.191C377.312 542.202 377.094 541.212 376.87 540.193C373.516 525.847 368.661 512.121 363.724 498.254C362.465 494.702 361.209 491.148 359.956 487.594C359.183 485.4 358.405 483.208 357.624 481.017C357.104 479.548 357.104 479.548 356.574 478.049C356.267 477.187 355.96 476.326 355.644 475.438C354.99 473.32 354.99 473.32 354.99 471.066C355.644 470.956 356.298 470.845 356.971 470.732C365.162 469.164 371.035 466.308 376.283 459.515C381.979 450.499 381.183 441.631 379.051 431.539C378.188 428.009 377.274 424.497 376.332 420.987C375.703 418.619 375.08 416.249 374.461 413.878C374.047 412.332 374.047 412.332 373.624 410.755C373.021 407.957 373.021 407.957 373.021 403.449C389.385 403.449 405.748 403.449 422.607 403.449C411.802 387.609 400.9 371.84 389.926 356.117C389.214 355.097 388.502 354.077 387.769 353.026C379.541 341.234 371.269 329.477 362.879 317.801C358.06 326.953 354.099 336.407 350.201 345.974C349.287 348.207 348.371 350.439 347.455 352.671C346.635 354.671 345.818 356.673 345.001 358.675C344.252 360.475 343.466 362.262 342.594 364.006C340.536 364.324 338.465 364.547 336.391 364.732C326.323 366.136 317.906 370.483 308.856 374.923C305.591 376.521 302.317 378.095 299.034 379.655C298.302 380.024 297.569 380.392 296.814 380.772C292.019 383.052 289.082 383.548 283.992 382.037C281.53 381.037 279.102 379.951 276.707 378.801C276.034 378.483 275.362 378.165 274.67 377.837C272.538 376.827 270.411 375.805 268.285 374.782C266.163 373.764 264.04 372.748 261.913 371.739C259.98 370.822 258.051 369.896 256.122 368.969C250.541 366.572 245.036 364.987 238.984 364.428C238.114 364.344 237.244 364.26 236.348 364.173C235.707 364.118 235.066 364.063 234.406 364.006C232.583 359.76 230.76 355.514 228.938 351.267C228.321 349.829 227.703 348.391 227.086 346.953C223.083 337.634 219.127 328.298 215.248 318.928C214.504 318.928 213.76 318.928 212.994 318.928C211.213 321.034 211.213 321.034 209.384 323.805C208.659 324.858 207.935 325.912 207.188 326.997C206.408 328.146 205.627 329.295 204.824 330.479C203.175 332.88 201.525 335.28 199.876 337.681C199.047 338.892 198.218 340.102 197.364 341.35C193.968 346.296 190.524 351.208 187.074 356.117C181.24 364.443 175.418 372.779 169.606 381.121C168.864 382.185 168.122 383.249 167.357 384.346C166.291 385.877 166.291 385.877 165.204 387.438C164.585 388.328 163.965 389.217 163.327 390.133C160.307 394.544 157.357 399.002 154.393 403.449C170.756 403.449 187.119 403.449 203.979 403.449C203.272 409.102 202.609 413.957 201.223 419.358C200.916 420.6 200.61 421.843 200.294 423.122C199.653 425.684 199.001 428.243 198.339 430.8C196.006 440.368 194.673 449.014 199.682 457.895C204.635 464.961 210.44 469.032 218.981 470.644C219.981 470.783 220.98 470.923 222.01 471.066C219.909 479.145 217.503 487.024 214.68 494.878C213.931 496.994 213.182 499.111 212.433 501.228C211.268 504.502 210.102 507.776 208.931 511.049C207.789 514.249 206.656 517.452 205.524 520.657C205.176 521.619 204.829 522.582 204.471 523.575C202.195 530.034 200.643 536.445 199.471 543.191C154.172 542.331 93.6945 530.139 59.7769 497.704C51.8319 487.45 52.2913 476.802 52.4737 464.375C52.4847 462.954 52.4847 462.954 52.4959 461.504C52.6268 445.003 53.5646 428.757 56.3476 412.465C56.4985 411.581 56.6494 410.697 56.8049 409.786C59.9312 392.703 67.388 375.268 81.3255 364.349C94.3432 355.685 111.111 353.026 126.21 349.972C152.351 344.65 174.727 337.122 197.78 323.576C198.517 323.146 199.254 322.717 200.013 322.274C201.752 321.224 203.436 320.084 205.105 318.928C205.105 318.184 205.105 317.44 205.105 316.674C204.505 316.448 203.905 316.222 203.287 315.989C180.459 307.324 155.575 297.093 144.25 273.849C137.348 256.159 145.117 239.28 152.191 223.018C161.812 201.108 161.812 201.108 165.615 194.374C170.846 184.988 172.265 177.773 171.649 167.071C171.572 164.299 171.503 161.527 171.442 158.755C171.407 157.427 171.373 156.099 171.337 154.731C170.952 119.035 185.038 84.2925 209.332 58.39C253.966 15.992 322.575 19.848 367.668 58.5221Z" fill="#EEEEEE"/>
<path d="M241.302 385.868C248.929 387.458 255.921 391.42 262.862 394.856C265.306 396.043 267.753 397.223 270.2 398.404C271.714 399.137 273.226 399.874 274.735 400.617C276.687 401.575 278.649 402.513 280.611 403.449C281.568 403.925 282.525 404.401 283.511 404.892C290.039 406.829 295.87 403.543 301.724 400.808C302.94 400.252 302.94 400.252 304.18 399.684C306.752 398.505 309.318 397.315 311.884 396.124C313.626 395.324 315.368 394.524 317.11 393.725C324.821 390.219 324.821 390.219 332.451 386.545C334.732 386.277 334.732 386.277 337.382 386.193C338.685 386.13 338.685 386.13 340.014 386.065C343.753 386.761 344.731 388.054 347.102 391.053C348.477 394.56 349.358 398.161 350.254 401.816C350.522 402.867 350.791 403.917 351.068 405C351.632 407.219 352.189 409.44 352.738 411.664C353.577 415.052 354.442 418.432 355.312 421.813C355.858 423.975 356.402 426.137 356.945 428.3C357.202 429.305 357.459 430.31 357.724 431.345C359.065 436.83 360 441.75 359.498 447.401C358.382 448.516 358.382 448.516 357.244 449.654C352.381 449.272 348.573 447.857 344.231 445.706C342.525 444.872 342.525 444.872 340.784 444.022C339.03 443.149 339.03 443.149 337.241 442.259C334.901 441.103 332.559 439.951 330.215 438.803C329.184 438.291 328.153 437.779 327.09 437.251C324.68 435.979 324.68 435.979 322.309 436.131C322.886 443.935 324.606 450.505 327.301 457.829C327.887 459.464 327.887 459.464 328.484 461.132C329.319 463.457 330.159 465.781 331.003 468.103C332.321 471.73 333.625 475.363 334.925 478.997C336.661 483.849 338.401 488.699 340.145 493.548C343.191 502.026 346.225 510.507 349.192 519.013C349.719 520.514 350.249 522.013 350.785 523.51C351.519 525.56 352.236 527.616 352.952 529.673C353.349 530.798 353.747 531.923 354.156 533.082C355.155 537.089 355.509 540.208 354.99 544.318C352.174 547.499 350.33 548.649 346.151 549.41C345.003 549.415 343.856 549.42 342.673 549.425C341.405 549.431 340.137 549.437 338.83 549.443C337.515 549.425 336.201 549.408 334.846 549.39C333.54 549.407 332.234 549.425 330.888 549.443C323.331 549.408 318.166 549.092 312.166 544.318C309.112 540.005 307.863 535.886 306.643 530.771C306.455 529.997 306.268 529.223 306.075 528.425C305.462 525.882 304.863 523.336 304.264 520.789C303.84 519.014 303.415 517.239 302.99 515.464C302.102 511.751 301.221 508.036 300.345 504.321C299.222 499.56 298.086 494.802 296.946 490.046C296.069 486.384 295.197 482.72 294.327 479.056C293.91 477.301 293.491 475.547 293.072 473.793C292.487 471.342 291.908 468.89 291.332 466.437C291.002 465.043 290.672 463.649 290.332 462.212C289.627 458.67 289.627 458.67 289.627 454.162C288.883 454.162 288.139 454.162 287.373 454.162C287.216 456.145 287.216 456.145 287.056 458.167C286.174 466.041 284.178 473.683 282.311 481.368C281.916 483.007 281.521 484.647 281.127 486.286C280.303 489.705 279.475 493.122 278.643 496.539C277.58 500.907 276.532 505.28 275.487 509.653C274.678 513.033 273.86 516.41 273.039 519.787C272.649 521.398 272.261 523.01 271.877 524.623C271.339 526.877 270.789 529.127 270.236 531.377C269.772 533.295 269.772 533.295 269.298 535.251C267.452 541.099 265.085 545.074 259.509 547.981C253.898 549.831 247.999 549.468 242.154 549.39C240.182 549.416 240.182 549.416 238.17 549.443C236.268 549.434 236.268 549.434 234.327 549.425C233.179 549.42 232.031 549.415 230.849 549.41C226.67 548.649 224.826 547.499 222.01 544.318C220.558 536.704 224.065 529.455 226.584 522.352C227.06 520.979 227.536 519.606 228.027 518.192C229.296 514.534 230.58 510.882 231.867 507.23C232.885 504.335 233.893 501.435 234.901 498.536C239.038 486.628 243.183 474.723 247.556 462.899C248.029 461.613 248.503 460.327 248.99 459.002C249.881 456.59 250.78 454.182 251.691 451.777C253.671 446.409 255.296 441.955 254.691 436.131C246.21 438.687 238.526 442.299 230.649 446.313C229.743 446.759 228.838 447.205 227.904 447.665C227.095 448.074 226.287 448.483 225.453 448.905C222.695 449.797 221.315 449.532 218.629 448.527C217.502 447.401 217.502 447.401 217.272 444.087C217.357 438.641 218.712 433.552 220.055 428.3C220.32 427.246 220.584 426.192 220.857 425.106C221.416 422.89 221.981 420.675 222.551 418.46C223.418 415.075 224.257 411.683 225.096 408.29C225.644 406.131 226.195 403.974 226.747 401.816C226.994 400.804 227.242 399.792 227.498 398.75C229.59 390.777 231.955 385.436 241.302 385.868Z" fill="#FF8602" fill-opacity="0.4"/>
</svg>
