<svg width="609" height="609" viewBox="0 0 609 609" fill="none" xmlns="http://www.w3.org/2000/svg">
<path d="M298.4 29.5499C337.011 28.5118 370.567 41.6217 399.304 67.0781C423.76 90.2649 439.22 123.241 440.479 156.905C440.887 175.277 439.831 192.697 435.341 210.533C434.968 212.025 434.968 212.025 434.587 213.547C424.586 252.271 405.127 288.082 378.247 317.583C377.431 318.485 376.615 319.387 375.775 320.315C358.032 338.953 334.011 352.962 307.94 353.825C283.62 354.087 261.981 345.763 243.839 329.478C242.866 328.647 241.894 327.816 240.893 326.96C220.628 309.33 206.101 287.795 193.882 264.058C193.491 263.301 193.1 262.545 192.698 261.765C171.658 220.388 160.135 168.875 174.433 123.637C176.229 118.346 178.417 113.298 180.798 108.24C181.141 107.506 181.484 106.772 181.838 106.016C197.177 73.7945 224.803 49.6476 258.182 37.2488C271.187 32.7226 284.667 30.1042 298.4 29.5499Z" fill="#EEEEEE"/>
<path d="M402.035 331.857C409.241 331.68 415.687 332.094 422.702 333.716C423.614 333.925 424.526 334.134 425.466 334.349C466.541 344.265 503.936 369.286 526.328 405.534C542.293 432.505 551.205 461.193 551.163 492.656C551.162 493.466 551.162 494.276 551.161 495.11C551.078 517.581 547.395 538.261 531.207 555.098C496.886 585.703 439.951 579.679 397.277 579.264C397.4 577.718 397.523 576.172 397.649 574.58C397.592 557.039 388.445 538.547 382.632 522.244C381.482 519.012 380.333 515.779 379.189 512.544C378.484 510.553 377.776 508.563 377.064 506.575C374.678 499.837 374.678 499.837 374.678 497.191C375.368 497.075 376.058 496.958 376.769 496.838C385.414 495.183 391.613 492.17 397.152 484.999C403.579 474.824 402.137 464.394 399.604 453.118C399.106 451.089 398.596 449.063 398.077 447.039C397.802 445.948 397.527 444.856 397.244 443.732C396.666 441.446 396.082 439.161 395.493 436.878C394.602 433.411 393.739 429.939 392.877 426.465C392.307 424.228 391.736 421.992 391.163 419.756C390.911 418.734 390.659 417.711 390.4 416.658C387.537 405.757 383.028 396.545 373.488 390.14C370.364 388.381 367.241 386.873 363.973 385.383C365.563 381.822 367.286 379.435 370.11 376.759C370.853 376.043 371.597 375.326 372.362 374.588C373.151 373.832 373.939 373.077 374.752 372.299C386.411 360.866 398.137 348.185 402.035 331.857Z" fill="#EEEEEE"/>
<path d="M206.965 331.858C207.314 333.047 207.314 333.047 207.671 334.26C213.819 353.208 229.048 367.452 243.145 380.932C245.027 383.005 245.027 383.005 245.027 385.383C243.905 385.841 243.905 385.841 242.76 386.308C233.679 390.37 226.17 395.607 222.377 405.158C221.182 409.266 219.991 413.373 218.859 417.499C218.616 418.381 218.373 419.264 218.122 420.173C216.476 426.193 214.896 432.227 213.353 438.274C212.809 440.389 212.257 442.501 211.695 444.612C206.004 464.198 206.004 464.198 210.756 483.365C216.014 490.759 222.146 495.052 231.125 496.746C232.708 496.967 232.708 496.967 234.322 497.192C232.082 505.796 229.519 514.199 226.544 522.575C225.962 524.233 225.962 524.233 225.368 525.925C224.144 529.408 222.915 532.889 221.684 536.37C220.446 539.88 219.209 543.392 217.975 546.904C217.211 549.077 216.444 551.249 215.675 553.421C215.33 554.402 214.984 555.384 214.628 556.395C214.325 557.253 214.021 558.112 213.708 558.997C212.12 563.835 211.587 567.906 211.648 573.02C211.659 574.191 211.67 575.363 211.681 576.569C211.694 577.459 211.708 578.348 211.722 579.264C105.354 580.3 105.354 580.3 76.1015 553.254C58.6357 534.913 57.3222 509.945 57.7685 486.054C58.7133 450.655 72.0822 415.871 95.156 388.952C95.6662 388.35 96.1764 387.749 96.7021 387.129C122.935 356.433 165.39 330.495 206.965 331.858Z" fill="#EEEEEE"/>
<path d="M254.685 407.269C262.735 408.947 270.115 413.129 277.44 416.756C280.02 418.008 282.603 419.254 285.186 420.5C286.783 421.274 288.379 422.052 289.971 422.835C292.032 423.847 294.102 424.837 296.174 425.825C297.184 426.327 298.194 426.83 299.235 427.347C306.125 429.392 312.278 425.924 318.458 423.037C319.741 422.45 319.741 422.45 321.05 421.851C323.764 420.607 326.473 419.35 329.181 418.094C331.019 417.249 332.858 416.405 334.696 415.561C342.835 411.861 342.835 411.861 350.889 407.983C353.296 407.7 353.296 407.7 356.093 407.612C357.468 407.545 357.468 407.545 358.871 407.477C362.817 408.211 363.85 409.576 366.352 412.741C367.804 416.442 368.733 420.244 369.678 424.101C369.962 425.21 370.246 426.319 370.538 427.461C371.134 429.804 371.721 432.148 372.301 434.495C373.186 438.071 374.099 441.639 375.017 445.207C375.593 447.489 376.168 449.771 376.741 452.054C377.012 453.114 377.283 454.175 377.563 455.268C378.979 461.057 379.965 466.25 379.436 472.214C378.258 473.391 378.258 473.391 377.057 474.593C371.924 474.189 367.904 472.696 363.322 470.425C361.521 469.545 361.521 469.545 359.684 468.648C357.833 467.727 357.833 467.727 355.944 466.787C353.474 465.567 351.002 464.351 348.528 463.14C347.44 462.599 346.352 462.058 345.231 461.501C342.686 460.159 342.686 460.159 340.184 460.319C340.793 468.556 342.609 475.491 345.453 483.221C346.071 484.946 346.071 484.946 346.702 486.707C347.583 489.161 348.469 491.613 349.36 494.064C350.751 497.893 352.128 501.727 353.5 505.562C355.332 510.683 357.168 515.803 359.009 520.921C362.225 529.868 365.426 538.82 368.558 547.797C369.114 549.382 369.674 550.964 370.24 552.545C371.014 554.708 371.771 556.878 372.527 559.049C372.946 560.236 373.365 561.424 373.798 562.647C374.851 566.877 375.225 570.168 374.678 574.507C371.705 577.863 369.759 579.077 365.349 579.88C364.137 579.886 362.926 579.891 361.677 579.897C360.339 579.903 359 579.909 357.621 579.915C356.234 579.897 354.846 579.878 353.416 579.859C352.038 579.878 350.66 579.896 349.239 579.915C341.263 579.879 335.811 579.545 329.479 574.507C326.255 569.954 324.937 565.607 323.649 560.208C323.451 559.391 323.253 558.574 323.05 557.732C322.403 555.048 321.77 552.36 321.138 549.672C320.691 547.799 320.243 545.925 319.794 544.052C318.857 540.133 317.927 536.213 317.002 532.291C315.817 527.266 314.618 522.245 313.414 517.224C312.488 513.359 311.568 509.492 310.65 505.625C310.21 503.773 309.768 501.921 309.325 500.07C308.708 497.483 308.097 494.895 307.489 492.306C307.141 490.835 306.792 489.363 306.433 487.847C305.69 484.108 305.69 484.108 305.69 479.351C304.904 479.351 304.119 479.351 303.311 479.351C303.145 481.443 303.145 481.443 302.976 483.578C302.045 491.888 299.939 499.954 297.967 508.065C297.551 509.795 297.134 511.526 296.718 513.256C295.849 516.864 294.974 520.471 294.096 524.077C292.975 528.688 291.868 533.303 290.765 537.919C289.911 541.486 289.048 545.051 288.182 548.615C287.77 550.316 287.361 552.017 286.955 553.719C286.388 556.098 285.807 558.473 285.223 560.848C284.733 562.872 284.733 562.872 284.234 564.936C282.285 571.109 279.786 575.304 273.901 578.373C267.979 580.325 261.753 579.942 255.584 579.859C253.502 579.887 253.502 579.887 251.379 579.915C249.371 579.906 249.371 579.906 247.323 579.897C246.111 579.891 244.9 579.886 243.652 579.88C239.241 579.077 237.295 577.863 234.322 574.507C232.79 566.47 236.491 558.819 239.15 551.322C239.652 549.873 240.155 548.424 240.673 546.931C242.013 543.071 243.368 539.216 244.726 535.362C245.801 532.305 246.865 529.245 247.928 526.185C252.295 513.617 256.669 501.052 261.285 488.572C261.785 487.215 262.284 485.857 262.799 484.459C263.739 481.913 264.688 479.371 265.649 476.833C267.739 471.167 269.454 466.466 268.816 460.319C259.864 463.017 251.754 466.829 243.441 471.066C242.485 471.537 241.529 472.008 240.544 472.493C239.69 472.925 238.836 473.357 237.957 473.802C235.046 474.744 233.589 474.464 230.754 473.403C229.565 472.214 229.565 472.214 229.322 468.716C229.412 462.968 230.842 457.597 232.259 452.054C232.539 450.941 232.818 449.829 233.105 448.683C233.696 446.344 234.292 444.006 234.893 441.669C235.808 438.095 236.695 434.515 237.579 430.934C238.158 428.656 238.739 426.378 239.322 424.101C239.583 423.033 239.845 421.965 240.115 420.865C242.323 412.45 244.819 406.812 254.685 407.269Z" fill="#FF8602" fill-opacity="0.4"/>
</svg>
